<svg id="Layer_1" data-name="Layer 1" xmlns="http://www.w3.org/2000/svg" width="45.9mm" height="5.4mm" viewBox="0 0 130.11 15.31"><defs><style>.cls-1{fill:#231f20;}</style></defs><path class="cls-1" d="M7,3.53H6.61c-.27,0-.47-.24-.59-.73a7.46,7.46,0,0,0-.33-1.08,1,1,0,0,0-.48-.36,2.15,2.15,0,0,0-.68-.09H3V5.36H4.1a.61.61,0,0,0,.4-.16.69.69,0,0,0,.22-.43.86.86,0,0,1,.19-.43.5.5,0,0,1,.41-.16h.26V7.49H5.24a.47.47,0,0,1-.48-.37,2.3,2.3,0,0,0-.18-.5.49.49,0,0,0-.28-.27,1,1,0,0,0-.44-.09H3V10a4.41,4.41,0,0,0,0,.54.41.41,0,0,0,.23.35,2.66,2.66,0,0,1,.38.13.37.37,0,0,1,.23.39v.39H.08V11.5A.48.48,0,0,1,.42,11a1,1,0,0,0,.31-.19.64.64,0,0,0,.09-.42c0-.22,0-.38,0-.48v-8a2.92,2.92,0,0,0,0-.32.59.59,0,0,0-.06-.2.93.93,0,0,0-.37-.21A.45.45,0,0,1,.05.74V.32H6.18A1.58,1.58,0,0,0,6.49.23l.27-.1L7,0Z"/><path class="cls-1" d="M14.86,11.38v.44H12.2V11.2a3.56,3.56,0,0,1-.53.36,2.57,2.57,0,0,1-1.26.38,1.8,1.8,0,0,1-1.53-.63,2.54,2.54,0,0,1-.42-1.56V5.2a1,1,0,0,0,0-.28.24.24,0,0,0-.1-.14A1.64,1.64,0,0,0,8,4.6a.33.33,0,0,1-.2-.34V3.85h2.76V9.44a2.76,2.76,0,0,0,.1.89.66.66,0,0,0,.69.43.89.89,0,0,0,.38-.11.83.83,0,0,0,.41-.37V5.33a1.14,1.14,0,0,0,0-.27.35.35,0,0,0-.1-.22,1,1,0,0,0-.37-.2c-.19-.08-.28-.19-.28-.34V3.85h2.83v6.47a2,2,0,0,0,0,.25.46.46,0,0,0,.06.23c0,.07.15.14.34.21A.36.36,0,0,1,14.86,11.38Z"/><path class="cls-1" d="M19.37,11.82H15.76v-.29a.4.4,0,0,1,.21-.39l.42-.2a.35.35,0,0,0,.09-.25c0-.12,0-.3,0-.53V1.76a2.73,2.73,0,0,0,0-.32.45.45,0,0,0-.09-.2A.64.64,0,0,0,16,1.05.36.36,0,0,1,15.76.7V.32h2.8v10c0,.14,0,.27,0,.4a.39.39,0,0,0,.16.29l.39.18a.39.39,0,0,1,.24.37Z"/><path class="cls-1" d="M27.37,11.82H24.68v-.5a4,4,0,0,1-.73.5,1.63,1.63,0,0,1-.73.17A2.53,2.53,0,0,1,21,10.66,4.74,4.74,0,0,1,20.28,8a5.68,5.68,0,0,1,.78-3,2.47,2.47,0,0,1,2.15-1.36,2.18,2.18,0,0,1,.66.1,4.74,4.74,0,0,1,.66.31V1.82a2.47,2.47,0,0,0,0-.32.57.57,0,0,0-.17-.39L24,1q-.21-.09-.21-.24V.32h2.84v9.85a2.57,2.57,0,0,0,.05.55A.45.45,0,0,0,27,11a.87.87,0,0,1,.29.1.51.51,0,0,1,.11.38Zm-2.84-1.37V5.11a2.2,2.2,0,0,0-.44-.42.87.87,0,0,0-.37-.08c-.47,0-.78.3-.94.9a7.11,7.11,0,0,0-.17,1.86V7.9a10.9,10.9,0,0,0,.12,2c.16.7.49,1,1,1a1,1,0,0,0,.55-.23A1.93,1.93,0,0,0,24.53,10.45Z"/><path class="cls-1" d="M38.35,11.12a1.37,1.37,0,0,1-.55.64,1.33,1.33,0,0,1-.75.24,1.5,1.5,0,0,1-.87-.28,1.39,1.39,0,0,1-.52-.77,2.3,2.3,0,0,1-.81.77,2.13,2.13,0,0,1-1,.28,2.34,2.34,0,0,1-1.6-.57,2.18,2.18,0,0,1-.74-1.73,2.41,2.41,0,0,1,.89-1.9,5.57,5.57,0,0,1,2.16-1l.8-.21a5.8,5.8,0,0,0-.12-1.08c-.16-.72-.46-1.08-.91-1.08a.57.57,0,0,0-.43.12.62.62,0,0,0-.1.4v.44a1.2,1.2,0,0,1-.25.79.87.87,0,0,1-.68.28.74.74,0,0,1-.63-.33A1.23,1.23,0,0,1,32,5.36,1.5,1.5,0,0,1,32.86,4a2.87,2.87,0,0,1,1.4-.34,2.84,2.84,0,0,1,2.55,1.14,3.71,3.71,0,0,1,.54,2.09V9.74a3.31,3.31,0,0,0,.08.87.32.32,0,0,0,.31.23.41.41,0,0,0,.19,0,.65.65,0,0,0,.15-.11Zm-3-2.94V7.45a2.86,2.86,0,0,0-.85.32,1.94,1.94,0,0,0-.85,1.73,2.48,2.48,0,0,0,.14.89.59.59,0,0,0,.57.45c.39,0,.66-.3.82-.9A7.33,7.33,0,0,0,35.37,8.18Z"/><path class="cls-1" d="M43.93,1.48a1.12,1.12,0,0,1-.24.74.75.75,0,0,1-.62.28.73.73,0,0,1-.68-.32,1.09,1.09,0,0,1-.16-.63V1.21a1,1,0,0,0,0-.27A.14.14,0,0,0,42,.85a.29.29,0,0,0-.29.2,1.33,1.33,0,0,0-.07.47,2.66,2.66,0,0,0,.09.65,4.62,4.62,0,0,1,.1.5l.07.58.07.66h1.48v1H42v5.53a.85.85,0,0,0,0,.29.39.39,0,0,0,.17.2,1.38,1.38,0,0,1,.49.17.4.4,0,0,1,.17.35v.4H39.26v-.4a.35.35,0,0,1,.24-.37,1.29,1.29,0,0,0,.39-.2.51.51,0,0,0,.06-.28V4.92h-.81V4.58a.47.47,0,0,1,.21-.44l.43-.23a.44.44,0,0,0,.15-.32,1.69,1.69,0,0,0,0-.28l0-.62A2.64,2.64,0,0,1,40.7.74,2.16,2.16,0,0,1,42.31.09a1.78,1.78,0,0,1,1.12.39A1.25,1.25,0,0,1,43.93,1.48Z"/><path class="cls-1" d="M59.21,11.82H55.84v-.4a.36.36,0,0,1,.19-.35l.37-.18a.26.26,0,0,0,.09-.19c0-.09,0-.22,0-.4V6.21a2.25,2.25,0,0,0-.13-.9.67.67,0,0,0-.65-.38,1.07,1.07,0,0,0-.54.16.8.8,0,0,0-.39.44v4.78a3.15,3.15,0,0,0,0,.37.38.38,0,0,0,.08.17l.3.17c.13.06.19.19.19.4v.4H52.16v-.37a.39.39,0,0,1,.15-.35l.31-.19a.31.31,0,0,0,.11-.21,3.78,3.78,0,0,0,0-.38V6a2,2,0,0,0-.1-.74A.64.64,0,0,0,52,4.81a1.27,1.27,0,0,0-.54.14.84.84,0,0,0-.46.49v4.93a.8.8,0,0,0,.12.49,2,2,0,0,0,.35.19.34.34,0,0,1,.23.34v.43H48.26v-.36a.38.38,0,0,1,.19-.37l.37-.15c.07,0,.11-.14.11-.31V5.12a.68.68,0,0,0,0-.3c0-.06-.14-.12-.35-.2a.42.42,0,0,1-.31-.43V3.85H50.9v.66a3.64,3.64,0,0,1,.56-.39,2.81,2.81,0,0,1,1.34-.4A2,2,0,0,1,53.88,4a2.69,2.69,0,0,1,.69.79,2.06,2.06,0,0,1,1-.79,2.46,2.46,0,0,1,1-.27,1.82,1.82,0,0,1,1.61.78,2.84,2.84,0,0,1,.44,1.64V10.4a3,3,0,0,0,0,.31.29.29,0,0,0,.11.2l.32.14a.35.35,0,0,1,.16.34Z"/><path class="cls-1" d="M67.12,11.38v.44H64.46V11.2a3.56,3.56,0,0,1-.53.36,2.57,2.57,0,0,1-1.26.38,1.8,1.8,0,0,1-1.53-.63,2.54,2.54,0,0,1-.42-1.56V5.2a1,1,0,0,0,0-.28.24.24,0,0,0-.1-.14,1.64,1.64,0,0,0-.36-.18.33.33,0,0,1-.2-.34V3.85h2.76V9.44a2.5,2.5,0,0,0,.1.89.66.66,0,0,0,.69.43.89.89,0,0,0,.38-.11.83.83,0,0,0,.41-.37V5.33a1.14,1.14,0,0,0,0-.27.35.35,0,0,0-.1-.22,1.07,1.07,0,0,0-.37-.2c-.19-.08-.28-.19-.28-.34V3.85h2.83v6.72a.62.62,0,0,0,.07.23c0,.07.15.14.34.21A.36.36,0,0,1,67.12,11.38Z"/><path class="cls-1" d="M71.63,11.82H68v-.29a.4.4,0,0,1,.21-.39l.42-.2a.35.35,0,0,0,.09-.25c0-.12,0-.3,0-.53V1.76a2.73,2.73,0,0,0,0-.32.45.45,0,0,0-.09-.2.64.64,0,0,0-.35-.19A.35.35,0,0,1,68,.7V.32h2.8v10c0,.14,0,.27,0,.4A.39.39,0,0,0,71,11l.39.18a.39.39,0,0,1,.24.37Z"/><path class="cls-1" d="M76.08,11.82H72.56V11.5a.32.32,0,0,1,.19-.31l.37-.19a.47.47,0,0,0,.13-.3,2.49,2.49,0,0,0,0-.49V5.47a1.26,1.26,0,0,0-.08-.5,1.14,1.14,0,0,0-.2-.22l-.37-.13a.33.33,0,0,1-.24-.35V3.85h3v6.58a1.32,1.32,0,0,0,0,.32.31.31,0,0,0,.12.2,3.87,3.87,0,0,0,.36.18.39.39,0,0,1,.21.38ZM75.17,1.46a1.65,1.65,0,0,1-.3,1,1,1,0,0,1-.81.42,1.07,1.07,0,0,1-.86-.42,1.4,1.4,0,0,1-.36-1,1.48,1.48,0,0,1,.35-1A1.06,1.06,0,0,1,74,.11a1,1,0,0,1,.81.41A1.53,1.53,0,0,1,75.17,1.46Z"/><path class="cls-1" d="M83.88,3.54a1,1,0,0,1-.19.6.57.57,0,0,1-.51.26.76.76,0,0,1-.44-.21c-.08-.07-.14-.11-.18-.11s-.07,0-.11.1a.32.32,0,0,0-.06.18,5.85,5.85,0,0,1,.54,1,3.1,3.1,0,0,1,.24,1.29,2.81,2.81,0,0,1-.94,2.3,3,3,0,0,1-2,.67,3.66,3.66,0,0,1-.55,0l-.44-.09-.6,1c.28-.06.51-.09.67-.11a8.22,8.22,0,0,1,1.24-.13,3.68,3.68,0,0,1,2.27.64,2,2,0,0,1,.85,1.73,2.25,2.25,0,0,1-1.39,2.08,4.8,4.8,0,0,1-2.23.54,4,4,0,0,1-1.82-.39,1.41,1.41,0,0,1-.9-1.27.93.93,0,0,1,.29-.7.91.91,0,0,1,.7-.29,1,1,0,0,1,.63.21.7.7,0,0,1,.27.6,1,1,0,0,1-.06.37.54.54,0,0,0-.07.26c0,.12.11.22.31.29a2.44,2.44,0,0,0,1.82-.15,1,1,0,0,0,0-1.8,2.38,2.38,0,0,0-1-.22h-.36l-.42,0-.63.08-.65.1-.43,0a1.12,1.12,0,0,1-.46-.08.34.34,0,0,1-.19-.21,1.1,1.1,0,0,1,0-.25.84.84,0,0,1,0-.27,1.53,1.53,0,0,1,.14-.29l1.25-2.12A3,3,0,0,1,77.49,8a4,4,0,0,1-.27-1.55A3,3,0,0,1,78,4.37a2.85,2.85,0,0,1,2.19-.87A2.72,2.72,0,0,1,81.77,4l0-.4a1,1,0,0,1,.32-.75,1.09,1.09,0,0,1,.76-.29,1,1,0,0,1,.69.29A.93.93,0,0,1,83.88,3.54Zm-2.78,3a5.07,5.07,0,0,0-.2-1.51c-.16-.53-.41-.8-.73-.8a.67.67,0,0,0-.63.46,4.83,4.83,0,0,0-.22,1.82A5.51,5.51,0,0,0,79.47,8c.14.52.4.78.76.78s.61-.27.74-.79A5.83,5.83,0,0,0,81.1,6.58Z"/><path class="cls-1" d="M92.05,11.82H88.68v-.37a.41.41,0,0,1,.18-.39l.26-.12a.23.23,0,0,0,.14-.17,1.12,1.12,0,0,0,0-.29V6.2a1.69,1.69,0,0,0-.19-.86.73.73,0,0,0-.68-.42,1.59,1.59,0,0,0-.5.1.88.88,0,0,0-.42.34v4.91a3.87,3.87,0,0,0,0,.42.27.27,0,0,0,.11.2l.37.17a.37.37,0,0,1,.2.38v.38H84.71v-.37A.37.37,0,0,1,85,11.1a1.94,1.94,0,0,0,.36-.19.61.61,0,0,0,.1-.29,3.23,3.23,0,0,0,0-.46V1.8a2.39,2.39,0,0,0,0-.43.54.54,0,0,0-.16-.27A.58.58,0,0,0,85,1a.38.38,0,0,1-.31-.39V.33h2.76V4.48A4.08,4.08,0,0,1,88,4.11a2.54,2.54,0,0,1,1.3-.39,1.83,1.83,0,0,1,1.6.77,2.87,2.87,0,0,1,.46,1.67V10.4a1.06,1.06,0,0,0,0,.33.34.34,0,0,0,.17.2,2.79,2.79,0,0,1,.34.13c.1,0,.15.18.15.38Z"/><path class="cls-1" d="M99.26,9.82a2.93,2.93,0,0,1-.86,1.51,2.53,2.53,0,0,1-1.8.69A3.32,3.32,0,0,1,94,10.84a4.66,4.66,0,0,1-1-3.12,4.58,4.58,0,0,1,.85-2.86,2.86,2.86,0,0,1,2.4-1.18,2.54,2.54,0,0,1,2.16,1.05,4.45,4.45,0,0,1,.75,1.95c0,.36.06.71.1,1.06H95.13a1.25,1.25,0,0,0,0,.21v.32a5.11,5.11,0,0,0,.26,1.8,1.44,1.44,0,0,0,1.38,1.07,1.68,1.68,0,0,0,1.47-.92,4.31,4.31,0,0,0,.4-.93ZM97.13,6.77V6.62a1.86,1.86,0,0,1,0-.22A3.77,3.77,0,0,0,97,5.25c-.16-.45-.42-.68-.78-.68s-.78.37-.95,1.1a7.1,7.1,0,0,0-.11,1.1Z"/><path class="cls-1" d="M107.34,11.82h-2.7v-.5a4.3,4.3,0,0,1-.72.5,1.71,1.71,0,0,1-.74.17A2.53,2.53,0,0,1,101,10.66,4.74,4.74,0,0,1,100.24,8,5.68,5.68,0,0,1,101,5a2.49,2.49,0,0,1,2.15-1.36,2.3,2.3,0,0,1,.67.1,4.67,4.67,0,0,1,.65.31V1.82a2.47,2.47,0,0,0,0-.32.49.49,0,0,0-.17-.39L104,1c-.15-.06-.22-.14-.22-.24V.32h2.84v9.85a2,2,0,0,0,.06.55.43.43,0,0,0,.28.28.78.78,0,0,1,.29.1.47.47,0,0,1,.12.38Zm-2.85-1.37V5.11a2.2,2.2,0,0,0-.44-.42.84.84,0,0,0-.37-.08c-.46,0-.78.3-.94.9a7.57,7.57,0,0,0-.17,1.86V7.9a9.81,9.81,0,0,0,.13,2q.24,1,1,1a1,1,0,0,0,.56-.23A3.08,3.08,0,0,0,104.49,10.45Z"/><path class="cls-1" d="M114.45,9.82a2.85,2.85,0,0,1-.85,1.51,2.53,2.53,0,0,1-1.8.69,3.33,3.33,0,0,1-2.65-1.18,4.71,4.71,0,0,1-1-3.12A4.59,4.59,0,0,1,109,4.86a2.86,2.86,0,0,1,2.4-1.18,2.51,2.51,0,0,1,2.15,1.05,4.45,4.45,0,0,1,.76,1.95l.09,1.06h-4.09a1.34,1.34,0,0,0,0,.21,2.92,2.92,0,0,0,0,.32,5.09,5.09,0,0,0,.27,1.8,1.42,1.42,0,0,0,1.37,1.07,1.7,1.7,0,0,0,1.48-.92,5,5,0,0,0,.39-.93Zm-2.13-3.05V6.62c0-.06,0-.13,0-.22a3.75,3.75,0,0,0-.16-1.15c-.16-.45-.42-.68-.77-.68s-.79.37-1,1.1a5.84,5.84,0,0,0-.12,1.1Z"/><path class="cls-1" d="M121.06,5.15a1.53,1.53,0,0,1-.28.93.88.88,0,0,1-.71.38.83.83,0,0,1-.7-.33q-.25-.33-.33-.33-.33,0-.63,1a7.12,7.12,0,0,0-.3,2.08v1.32a2.27,2.27,0,0,0,0,.51.34.34,0,0,0,.14.24l.33.12a.44.44,0,0,1,.32.46v.3H115.4v-.3a.41.41,0,0,1,.19-.4L116,11a.41.41,0,0,0,.1-.22,2.18,2.18,0,0,0,0-.53V5.42A1,1,0,0,0,116,5a.94.94,0,0,0-.25-.31l-.3-.15a.37.37,0,0,1-.16-.36V3.85h2.54L118,6.28A10,10,0,0,1,118.45,5c.43-.85.91-1.28,1.44-1.28a1.06,1.06,0,0,1,.83.43A1.55,1.55,0,0,1,121.06,5.15Z"/><path class="cls-1" d="M124,10.7a1.58,1.58,0,0,1-.29.93A.88.88,0,0,1,123,12a1,1,0,0,1-.81-.41,1.62,1.62,0,0,1-.3-1,1.55,1.55,0,0,1,.3-.94.93.93,0,0,1,.78-.41.89.89,0,0,1,.78.42A1.68,1.68,0,0,1,124,10.7Z"/><path class="cls-1" d="M127,10.7a1.57,1.57,0,0,1-.28.93A.91.91,0,0,1,126,12a1,1,0,0,1-.8-.41,1.62,1.62,0,0,1-.3-1,1.55,1.55,0,0,1,.3-.94.93.93,0,0,1,.78-.41.92.92,0,0,1,.78.42A1.68,1.68,0,0,1,127,10.7Z"/><path class="cls-1" d="M130.06,10.7a1.58,1.58,0,0,1-.29.93A.88.88,0,0,1,129,12a1,1,0,0,1-.8-.41,1.65,1.65,0,0,1,0-1.91.94.94,0,0,1,.79-.41.89.89,0,0,1,.77.42A1.68,1.68,0,0,1,130.06,10.7Z"/></svg>
