<svg xmlns="http://www.w3.org/2000/svg" width="65mm" height="92.45mm" viewBox="0 0 184.25 262.05"><defs><style>.cls-1{fill:#0c3b83;}</style></defs><g id="Cutter"><path class="cls-1" d="M135.14,51.2a8.42,8.42,0,0,1-2.68-11.63,21.33,21.33,0,0,0,3.6-11.23C136.06,12.69,116.39,0,92.13,0S48.19,12.69,48.19,28.34A21.25,21.25,0,0,0,51.8,39.57,8.44,8.44,0,0,1,49.11,51.2C19.77,69.78,0,107.28,0,150.23c0,57.34,35.47,104.53,81.19,111.1l.75.06a79,79,0,0,0,20.38,0l.74-.06c45.72-6.57,81.19-53.76,81.19-111.1C184.25,107.28,164.48,69.78,135.14,51.2Z"/></g></svg>
