<?xml version="1.0" standalone="no"?>
<!DOCTYPE svg PUBLIC "-//W3C//DTD SVG 20010904//EN"
 "http://www.w3.org/TR/2001/REC-SVG-20010904/DTD/svg10.dtd">
<svg version="1.0" xmlns="http://www.w3.org/2000/svg"
 width="1396.000000pt" height="1396.000000pt" viewBox="0 0 1396.000000 1396.000000"
 preserveAspectRatio="xMidYMid meet">
<metadata>
Created by potrace 1.11, written by Peter Selinger 2001-2013
</metadata>
<g transform="translate(0.000000,1396.000000) scale(0.100000,-0.100000)"
fill="#000000" stroke="none">
<path d="M6748 13955 c-2 -2 -40 -6 -84 -9 -75 -5 -118 -10 -184 -22 -14 -2
-45 -7 -70 -10 -51 -7 -64 -9 -140 -25 -30 -6 -62 -13 -70 -14 -8 -2 -15 -4
-15 -5 0 -1 -9 -3 -20 -5 -26 -5 -59 -13 -62 -15 -4 -3 -13 -5 -58 -15 -22 -4
-51 -12 -65 -18 -14 -6 -27 -11 -30 -12 -22 -6 -66 -21 -125 -43 -38 -14 -72
-27 -75 -28 -29 -6 -245 -108 -248 -116 -2 -5 -9 -8 -15 -8 -25 0 -284 -169
-347 -226 -14 -13 -47 -43 -74 -66 -27 -24 -61 -56 -75 -72 -102 -113 -97
-108 -131 -156 -14 -19 -28 -37 -31 -40 -3 -3 -21 -34 -40 -70 -19 -36 -37
-66 -41 -68 -5 -2 -8 -12 -8 -22 0 -10 -4 -20 -8 -22 -9 -3 -61 -156 -68 -198
-3 -14 -7 -31 -9 -38 -6 -16 -19 -171 -16 -182 1 -3 3 -37 6 -75 2 -39 8 -82
14 -97 5 -14 8 -28 5 -31 -2 -2 0 -16 6 -31 5 -15 12 -37 14 -49 8 -39 47
-138 76 -191 48 -91 72 -131 82 -137 5 -3 10 -10 10 -15 0 -9 12 -42 25 -74
19 -45 25 -157 12 -225 -13 -70 -60 -162 -111 -215 -24 -25 -88 -75 -143 -112
-129 -86 -295 -204 -334 -237 -11 -9 -35 -29 -56 -46 -40 -33 -48 -40 -120
-100 -120 -101 -305 -281 -441 -431 -101 -111 -108 -119 -231 -270 -18 -21
-64 -82 -103 -134 -39 -52 -77 -102 -83 -110 -7 -9 -30 -43 -52 -75 -22 -33
-44 -64 -48 -70 -5 -5 -18 -25 -30 -44 -12 -19 -32 -51 -45 -70 -13 -20 -25
-44 -29 -53 -3 -10 -9 -18 -13 -18 -4 0 -10 -8 -14 -17 -6 -18 -15 -34 -51
-88 -11 -16 -27 -43 -35 -60 -8 -16 -17 -32 -20 -35 -14 -14 -225 -430 -246
-486 -9 -24 -21 -44 -27 -44 -6 0 -8 -3 -5 -6 4 -3 -4 -29 -16 -57 -29 -65
-39 -91 -40 -97 -1 -3 -4 -9 -8 -15 -14 -24 -139 -360 -143 -385 0 -3 -3 -9
-6 -15 -3 -5 -20 -57 -38 -115 -18 -58 -35 -112 -38 -120 -3 -8 -7 -22 -8 -30
-2 -8 -12 -45 -23 -83 -12 -37 -21 -68 -21 -70 0 -1 -2 -9 -4 -17 -7 -20 -36
-139 -43 -170 -3 -14 -14 -61 -24 -105 -11 -44 -22 -97 -25 -119 -4 -21 -9
-48 -11 -60 -11 -50 -16 -72 -17 -88 -1 -10 -5 -18 -10 -18 -5 0 -5 -6 2 -13
6 -8 7 -17 2 -23 -5 -5 -12 -36 -16 -69 -3 -32 -8 -62 -10 -65 -2 -3 -7 -33
-11 -65 -11 -88 -12 -100 -14 -100 -1 0 -3 -18 -4 -40 -2 -22 -6 -62 -10 -90
-11 -92 -15 -129 -22 -220 -3 -49 -8 -112 -11 -140 -8 -80 -8 -800 0 -910 9
-120 12 -152 33 -360 13 -125 20 -180 30 -225 2 -14 6 -43 8 -65 2 -22 6 -51
10 -65 3 -14 8 -41 10 -60 2 -19 7 -46 10 -60 3 -14 8 -38 11 -55 5 -27 12
-60 31 -160 21 -106 137 -545 150 -566 3 -5 8 -22 11 -37 8 -45 15 -67 34
-107 5 -11 11 -29 13 -40 7 -35 38 -120 47 -129 5 -6 9 -18 9 -27 0 -10 12
-46 26 -81 24 -59 35 -86 65 -163 7 -16 12 -33 11 -38 -1 -4 2 -7 8 -7 5 0 10
-7 10 -15 0 -8 4 -23 9 -33 16 -29 71 -153 71 -158 0 -6 122 -249 149 -297 11
-21 21 -44 21 -51 0 -8 7 -16 15 -20 8 -3 15 -12 15 -20 0 -14 36 -84 50 -96
3 -3 12 -18 20 -35 8 -16 17 -32 20 -35 3 -3 12 -18 20 -35 8 -16 17 -32 20
-35 3 -3 28 -41 55 -85 55 -89 164 -251 207 -306 15 -20 28 -41 28 -46 0 -5 9
-15 20 -23 11 -8 20 -20 20 -26 0 -7 3 -14 8 -16 4 -1 29 -32 56 -68 27 -36
54 -69 61 -75 6 -5 18 -20 26 -32 16 -23 110 -133 146 -171 13 -12 23 -25 23
-28 0 -8 352 -357 419 -416 30 -27 57 -48 62 -48 4 0 9 -4 11 -9 5 -14 175
-151 187 -151 6 0 11 -4 11 -8 0 -5 32 -31 71 -58 39 -27 76 -54 82 -60 22
-20 226 -154 235 -154 4 0 17 -8 28 -17 10 -10 37 -27 59 -39 53 -27 89 -48
95 -54 3 -3 46 -26 95 -50 50 -25 92 -48 95 -51 3 -3 23 -12 45 -20 22 -8 42
-16 45 -20 8 -9 104 -52 118 -52 6 0 12 -4 12 -9 0 -4 9 -8 20 -8 11 0 20 -4
20 -10 0 -5 3 -9 8 -9 4 1 9 0 12 -1 3 -1 12 -3 20 -5 9 -1 36 -12 60 -23 25
-11 110 -41 190 -68 197 -65 190 -63 223 -66 9 -1 17 -5 17 -8 0 -4 6 -7 13
-7 18 -1 56 -9 107 -23 25 -7 53 -13 63 -12 9 0 17 -3 17 -7 0 -4 10 -7 23 -8
20 -1 64 -8 77 -13 3 -2 9 -2 13 -1 5 1 25 -3 45 -8 40 -10 109 -20 182 -26
25 -2 59 -6 75 -9 171 -29 664 -28 920 1 33 3 81 7 107 7 27 1 48 4 48 7 0 4
19 9 43 12 41 6 64 10 137 24 19 4 42 8 50 9 8 2 41 9 73 17 31 8 57 12 57 9
0 -3 5 -1 11 5 6 6 18 9 25 6 8 -3 14 0 14 7 0 6 4 8 10 5 6 -3 16 -3 23 2 6
4 21 9 32 10 11 2 79 22 150 45 72 23 132 42 135 43 3 1 16 6 30 12 27 12 122
47 130 48 3 0 19 8 36 18 17 9 34 13 38 10 3 -4 6 -1 6 5 0 7 9 12 20 12 11 0
20 4 20 8 0 5 6 9 13 9 6 0 35 10 62 23 28 12 52 22 54 21 2 -2 7 1 10 6 3 4
58 34 121 65 63 32 153 80 199 108 46 27 88 50 93 50 4 0 8 5 8 10 0 6 4 10
10 10 5 0 53 29 106 65 53 36 98 65 100 65 2 0 12 6 21 14 10 8 68 51 128 96
61 45 115 88 121 96 6 8 14 14 18 14 3 0 19 11 34 24 15 14 38 34 52 46 67 57
150 131 211 190 37 36 76 72 86 81 15 13 120 125 241 256 16 18 47 53 68 79
21 26 46 55 54 64 8 9 37 45 65 81 27 35 53 66 57 67 5 2 8 8 8 13 0 8 19 34
46 63 6 6 19 25 30 41 19 31 74 107 99 137 8 9 21 31 30 48 14 28 27 46 60 84
6 6 11 18 13 26 2 8 9 22 16 30 7 8 38 58 70 110 31 52 61 102 66 110 5 8 20
35 32 60 13 25 26 47 29 50 12 11 194 379 244 495 7 17 20 47 29 67 9 21 23
55 30 75 8 21 22 56 32 78 10 22 18 42 19 45 1 3 5 14 9 25 23 61 28 75 28 82
0 4 4 13 9 19 5 7 12 20 14 30 2 11 20 66 40 124 20 58 38 112 40 120 2 8 13
44 24 80 51 162 137 502 158 625 7 42 11 60 13 60 1 0 3 9 4 20 5 34 16 99 21
125 8 38 30 184 40 265 2 11 6 38 9 60 7 53 14 115 21 200 4 39 8 86 10 104
20 162 27 840 11 1056 -4 61 -9 137 -11 170 -2 33 -5 60 -5 60 -3 0 -8 43 -13
105 -5 51 -9 83 -23 185 -3 22 -8 58 -11 80 -8 67 -12 90 -13 90 -3 0 -9 40
-12 73 -1 17 -6 32 -11 32 -4 0 -6 4 -3 9 3 5 1 33 -5 62 -10 54 -14 72 -25
139 -3 19 -9 39 -12 45 -3 5 -7 21 -8 35 -1 14 -4 34 -7 45 -21 86 -72 282
-88 340 -11 38 -22 77 -24 85 -5 22 -59 193 -87 275 -12 39 -26 71 -30 73 -4
2 -4 10 -1 18 3 8 0 14 -6 14 -6 0 -10 3 -9 8 3 12 -21 88 -37 119 -8 15 -15
32 -15 36 0 5 -6 23 -14 40 -8 18 -40 93 -71 167 -152 362 -402 814 -609 1101
-23 32 -48 67 -56 80 -8 12 -23 31 -32 41 -10 10 -18 21 -18 24 0 5 -46 69
-65 90 -5 6 -26 30 -45 55 -82 102 -144 175 -162 192 -11 9 -18 17 -15 17 12
0 -293 310 -404 410 -45 41 -93 85 -106 98 -13 12 -28 22 -33 22 -5 0 -14 9
-20 20 -6 11 -17 20 -25 20 -7 0 -15 4 -17 8 -1 4 -23 23 -47 42 -25 19 -53
42 -62 50 -35 30 -48 40 -54 40 -3 0 -13 7 -22 16 -16 14 -131 97 -173 123
-165 106 -215 154 -261 246 -38 77 -43 101 -42 205 0 97 20 165 75 251 36 57
98 182 98 199 0 6 4 10 8 10 4 0 8 8 9 18 1 9 11 51 22 92 51 179 55 314 15
488 -17 75 -64 206 -76 210 -4 2 -6 7 -3 12 3 4 -2 13 -10 20 -8 7 -15 18 -15
24 0 13 -87 150 -119 186 -12 14 -38 45 -59 69 -43 51 -124 130 -167 162 -16
13 -32 26 -35 30 -13 18 -169 126 -245 171 -76 44 -267 138 -330 162 -38 15
-79 31 -90 36 -28 13 -161 56 -215 70 -25 6 -52 14 -60 17 -8 3 -22 7 -30 8
-8 2 -26 6 -40 10 -46 12 -55 13 -102 21 -27 3 -48 9 -48 13 0 3 -10 6 -22 7
-35 1 -121 12 -138 18 -8 3 -42 8 -75 11 -33 3 -80 8 -105 11 -52 5 -557 13
-562 9z"/>
</g>
</svg>
